<svg width="72" height="72" viewBox="0 0 72 72" fill="none" xmlns="http://www.w3.org/2000/svg">
<rect width="72" height="72" rx="18" fill="#0F4C3A"/>
<path d="M53.415 21.42C48.78 16.77 41.31 16.77 36.66 21.42L31.5 26.58L36.66 31.74L41.82 26.58C44.235 24.165 47.865 24.165 50.28 26.58C52.695 28.995 52.695 32.625 50.28 35.04L42.96 42.36L47.52 46.92L54.84 39.6C59.49 34.965 59.49 27.48 54.84 22.83L53.415 21.42Z" fill="#C7F03B"/>
<path d="M25.02 44.52C22.605 46.935 22.605 50.565 25.02 52.98C27.435 55.395 31.065 55.395 33.48 52.98L41.82 44.64L36.66 39.48L28.32 47.82C27.525 48.615 26.325 48.615 25.53 47.82C24.735 47.025 24.735 45.825 25.53 45.03L33.87 36.69L29.31 32.13L21.585 39.87C16.935 44.505 16.935 51.99 21.585 56.64C26.235 61.29 33.72 61.29 38.37 56.64L46.11 48.9L41.55 44.34L33.81 52.08C30.6 55.29 25.47 55.29 22.26 52.08C19.05 48.87 19.05 43.74 22.26 40.53L30 32.79L25.44 28.23L17.7 35.97C11.04 42.63 11.04 53.34 17.7 60C24.36 66.66 35.07 66.66 41.73 60L49.47 52.26L44.91 47.7L37.17 55.44C31.635 60.975 22.365 60.975 16.83 55.44C11.295 49.905 11.295 40.635 16.83 35.1L24.57 27.36L20.01 22.8L12.27 30.54C4.08 38.73 4.08 52.02 12.27 60.21C20.46 68.4 33.75 68.4 41.94 60.21L53.82 48.33L49.26 43.77L37.38 55.65C31.47 61.56 21.63 61.56 15.72 55.65C9.81 49.74 9.81 39.9 15.72 33.99L27.6 22.11L23.04 17.55L11.16 29.43C1.98 38.61 1.98 53.13 11.16 62.31C20.34 71.49 34.86 71.49 44.04 62.31L55.92 50.43L51.36 45.87L39.48 57.75C33.81 63.42 24.87 63.42 19.2 57.75C13.53 52.08 13.53 43.14 19.2 37.47L31.08 25.59L26.52 21.03L14.64 32.91C6.93 40.62 6.93 53.1 14.64 60.81C22.35 68.52 34.83 68.52 42.54 60.81L54.42 48.93L49.86 44.37L37.98 56.25C32.085 62.145 22.635 62.145 16.74 56.25C10.845 50.355 10.845 40.905 16.74 35.01L28.62 23.13L24.06 18.57L12.18 30.45C2.97 39.66 2.97 54.27 12.18 63.48C21.39 72.69 36 72.69 45.21 63.48L57.09 51.6L52.53 47.04L40.65 58.92C33.93 65.64 22.59 65.64 15.87 58.92C9.15 52.2 9.15 40.86 15.87 34.14L27.75 22.26L23.19 17.7L11.31 29.58C2.04 38.85 2.04 53.55 11.31 62.82C20.58 72.09 35.28 72.09 44.55 62.82L56.43 50.94L51.87 46.38L39.99 58.26C33.135 65.115 22.845 65.115 15.99 58.26C9.135 51.405 9.135 41.115 15.99 34.26L27.87 22.38L23.31 17.82L11.43 29.7C2.13 39 2.13 53.85 11.43 63.15C20.73 72.45 35.58 72.45 44.88 63.15L56.76 51.27L52.2 46.71L40.32 58.59C33.405 65.505 22.995 65.505 16.08 58.59C9.165 51.675 9.165 41.265 16.08 34.35L27.96 22.47L23.4 17.91L11.52 29.79C2.19 39.12 2.19 54.15 11.52 63.48C20.85 72.81 35.88 72.81 45.21 63.48L57.09 51.6L52.53 47.04L40.65 58.92C33.93 65.64 22.59 65.64 15.87 58.92C9.15 52.2 9.15 40.86 15.87 34.14L27.75 22.26L23.19 17.7L11.31 29.58C2.01 38.88 2.01 53.73 11.31 63.03C20.61 72.33 35.46 72.33 44.76 63.03L56.64 51.15L52.08 46.59L40.2 58.47C33.33 65.34 22.05 65.34 15.18 58.47C8.31 51.6 8.31 40.32 15.18 33.45L27.06 21.57L22.5 17.01L10.62 28.89C0 39.51 0 56.49 10.62 67.11C21.24 77.73 38.22 77.73 48.84 67.11L63 52.95L58.44 48.39L44.28 62.55C36.33 70.5 23.13 70.5 15.18 62.55C7.23 54.6 7.23 41.4 15.18 33.45L29.34 19.29L24.78 14.73L10.62 28.89C0 39.51 0 56.49 10.62 67.11C21.24 77.73 38.22 77.73 48.84 67.11L63 52.95L58.44 48.39L44.28 62.55C36.33 70.5 23.13 70.5 15.18 62.55C7.23 54.6 7.23 41.4 15.18 33.45L29.34 19.29L24.78 14.73L10.62 28.89C0 39.51 0 56.49 10.62 67.11C21.24 77.73 38.22 77.73 48.84 67.11L63 52.95L58.44 48.39L44.28 62.55C36.33 70.5 23.13 70.5 15.18 62.55C7.23 54.6 7.23 41.4 15.18 33.45L29.34 19.29L24.78 14.73L10.62 28.89Z" fill="#6F2C91"/>
</svg>
